<?xml version="1.0" encoding="utf-8"?>
<!-- Generator: Adobe Illustrator 27.1.1, SVG Export Plug-In . SVG Version: 6.00 Build 0)  -->
<svg version="1.1" id="TASKRISO" xmlns="http://www.w3.org/2000/svg" xmlns:xlink="http://www.w3.org/1999/xlink" x="0px" y="0px"
	 viewBox="0 0 90.7 90.7" style="enable-background:new 0 0 90.7 90.7;" xml:space="preserve">
<style type="text/css">
	.st0{fill:#0096AF;}
	.st1{fill:#65B32E;}
</style>
<path id="BOX" class="st0" d="M60.9,51.5v13.7c0,2.9-2.3,5.2-5.2,5.2H16c-2.9,0-5.2-2.3-5.2-5.2V25.5c0-2.9,2.3-5.2,5.2-5.2h39.7
	c2.3,0,4.3,1.5,5,3.6l8-5.3c-2.5-4.6-7.3-7.8-13-7.8H16C7.9,10.9,1.3,17.4,1.3,25.5v39.7c0,8.1,6.6,14.7,14.7,14.7h39.7
	c8.1,0,14.7-6.6,14.7-14.7V45.3L60.9,51.5L60.9,51.5z"/>
<path id="CHECK" class="st1" d="M29.8,65.8c-0.7,0-1.4-0.1-2-0.3c-2.1-0.6-3.9-2-4.9-4l-7.3-14.6c-0.9-1.8-1.1-4-0.4-5.9
	c0.7-1.9,2-3.5,3.9-4.5c1.1-0.5,2.2-0.8,3.5-0.8c3,0,5.6,1.6,6.9,4.3l3.4,6.8l44.5-29.3c1.3-0.8,2.8-1.3,4.3-1.3
	c2.6,0,5,1.3,6.5,3.5c2.3,3.6,1.3,8.4-2.2,10.7L34,64.6C32.7,65.4,31.3,65.8,29.8,65.8z"/>
</svg>
