<?xml version="1.0" encoding="utf-8"?>
<svg version="1.1" id="TASKRLOGO" xmlns="http://www.w3.org/2000/svg" xmlns:xlink="http://www.w3.org/1999/xlink" x="0px" y="0px"
	 viewBox="0 0 347.2 71.7" style="enable-background:new 0 0 347.2 71.7;" xml:space="preserve">
<style type="text/css">
	.st0{fill:#0096AF;}
	.st1{fill:#65B32E;}
</style>
<path id="R" class="st0" d="M298.4,18c0.5-4.2,4.2-7.5,8.5-7.5h20.3c6.5,0,11.4,1.4,14.8,4.3c4.1,3.5,5.9,9.3,5.2,15.6
	c-0.6,5.8-3.3,10.7-8.1,14.6c-0.9,0.7-1.7,1.3-2.5,1.8l6.5,12.4c0.6,1.1,0.8,2.3,0.6,3.7c-0.2,2-1.2,3.8-2.9,5.4
	c-1.7,1.6-3.6,2.3-5.6,2.3c-2.9,0-4.9-1.2-6-3.6l-8.2-16.6h-10.5l-1.4,12.8c-0.4,3.9-4.3,7.4-8.5,7.4s-7.3-3.3-6.9-7.4L298.4,18
	L298.4,18z M311.6,37.6H323c2,0,3.7-0.4,5.2-1.3c2-1.2,3-3.1,3.3-5.7c0.3-2.5-0.3-4.4-1.8-5.6c-1.2-1-2.8-1.5-5-1.5h-11.6
	L311.6,37.6L311.6,37.6z"/>
<path id="K" class="st0" d="M245.6,17.2c0.4-4.1,4.3-7.4,8.4-7.4c4.2,0,7.3,3.3,6.9,7.4l-1.6,14.6l28.6-28.5
	c1.5-1.5,3.4-2.3,5.5-2.3c3.9,0,7,3.3,6.6,7.5c-0.2,1.8-1,3.4-2.2,4.6l-24,23l13.6,22.7c0.7,1.1,1,2.5,0.8,4c-0.2,2-1.2,3.8-2.9,5.5
	c-1.6,1.6-3.6,2.3-5.7,2.3c-2.4,0-4.7-1.1-5.8-3.2l-11.5-20.6l-5,4.7l-1.3,11.7c-0.4,3.9-4.3,7.4-8.4,7.4s-7.3-3.3-6.9-7.4
	L245.6,17.2L245.6,17.2z"/>
<path id="S" class="st0" d="M199.7,53c1,0,1.8,0.2,2.6,0.5c0.6,0.3,0.7,0.3,1.2,0.6c0.5,0.2,1.4,0.6,2,1c3.1,1.6,5.8,2.3,8.4,2.3
	c6.5,0,7.5-3.1,7.6-4.7c0.3-2.8-2.1-4.3-6.7-5.8c-0.6-0.3-1.7-0.6-3.4-1.1l-4-1.2c-1.9-0.7-5-2.2-6.8-3.7c-4.1-3.4-5.8-8.1-5.2-14.2
	c1.1-10,10.3-17,25.1-17c5.7,0,10.4,0.8,13.9,2.3c4,1.7,5.8,4.3,5.4,7.6c-0.4,4.1-3.8,7.1-8,7.1c-1,0-1.6-0.1-2.9-0.4l-1.2-0.4
	c-0.4-0.3-2.6-1.3-2.8-1.3c-2.5-1-4.7-1.6-6.7-1.6c-4.2,0-6.4,1.1-6.6,3.4c-0.3,2.4,2,3.8,6.5,5.2c0.4,0.1,1.7,0.4,3.6,1
	s3.4,1,4.4,1.4c1.9,0.7,5.3,2.3,7.3,3.9c3.9,3.2,5.5,7.7,4.9,13.6c-1.3,11.9-12.6,19.1-25.7,19.1c-4.2,0-10.4-0.8-14.8-2.5
	c-4.6-1.8-6.7-4.4-6.3-7.8C192.2,56.1,195.8,53,199.7,53L199.7,53z"/>
<path id="A" class="st0" d="M140.1,60.4l19.2-42.7c2.4-5.3,6.2-8,11.6-8s8.8,2.7,10.1,8l9.7,42.7c0.3,1.2,0.4,2.3,0.3,3.2
	c-0.5,4.3-4,7.1-8.5,7.1c-3.7,0-6.1-1.8-6.8-5l-1.2-6.5h-18.2l-2.7,6.5c-1.4,3.4-4.1,5-8,5c-4.4,0-7-3.1-6.6-7
	C139.1,62.7,139.5,61.6,140.1,60.4L140.1,60.4z M161.4,46.8h10.8l-3.4-18L161.4,46.8z"/>
<path id="T" class="st0" d="M106.8,10.6h40.4c3.6,0,6.3,3,5.9,6.8s-3.8,6.8-7.3,6.8h-12.5L129,63.3c-0.4,3.9-4.3,7.4-8.4,7.4
	s-7.3-3.3-6.9-7.4l4.2-39.1h-12.5c-3.6,0-6.3-3-5.9-6.8S103.3,10.6,106.8,10.6L106.8,10.6z"/>
<path id="BOX" class="st0" d="M59.6,42.3V56c0,2.9-2.3,5.2-5.2,5.2H14.7c-2.9,0-5.2-2.3-5.2-5.2V16.3c0-2.9,2.3-5.2,5.2-5.2h39.7
	c2.3,0,4.3,1.5,5,3.6l8-5.3c-2.5-4.6-7.3-7.8-13-7.8H14.7C6.6,1.7,0,8.2,0,16.3V56c0,8.1,6.6,14.7,14.7,14.7h39.7
	c8.1,0,14.7-6.6,14.7-14.7V36.1L59.6,42.3L59.6,42.3z"/>
<path id="CHECK" class="st1" d="M28.5,56.6c-0.7,0-1.4-0.1-2-0.3c-2.1-0.6-3.9-2-4.9-4l-7.3-14.6c-0.9-1.8-1.1-4-0.4-5.9
	s2-3.5,3.9-4.5c1.1-0.5,2.2-0.8,3.5-0.8c3,0,5.6,1.6,6.9,4.3l3.4,6.8L76.1,8.3C77.4,7.5,78.9,7,80.4,7c2.6,0,5,1.3,6.5,3.5
	c2.3,3.6,1.3,8.4-2.2,10.7L32.7,55.4C31.4,56.2,30,56.6,28.5,56.6z"/>
</svg>
